<svg width="314" height="232" viewBox="0 0 314 232" fill="none" xmlns="http://www.w3.org/2000/svg">
  <mask id="path-1-inside-1_166_5" fill="white">
  <path d="M154.666 0.979675C156.187 0.51557 157.813 0.515564 159.334 0.979658L233.973 23.7467C235.312 24.1551 236.52 24.9079 237.477 25.9297L290.86 82.9226C291.76 83.8835 292.409 85.0517 292.75 86.3235L310.637 153.167C311.715 157.194 309.519 161.374 305.592 162.772L299.851 164.816C297.302 165.723 294.468 165.281 292.317 163.64L246.293 128.542C241.68 125.025 234.975 127.432 233.652 133.079L220.52 189.152C219.9 191.801 217.977 193.952 215.414 194.865L211.314 196.324C210.453 196.63 209.546 196.787 208.632 196.787H203.949C201.278 196.787 198.784 195.455 197.299 193.236L163.649 142.94C160.481 138.205 153.519 138.205 150.351 142.94L116.701 193.236C115.216 195.455 112.722 196.787 110.051 196.787H105.368C104.454 196.787 103.547 196.63 102.686 196.324L98.5862 194.865C96.0235 193.952 94.0998 191.801 93.4796 189.152L80.3478 133.079C79.0252 127.432 72.3197 125.025 67.7074 128.542L21.6833 163.64C19.5323 165.281 16.6981 165.723 14.1497 164.816L8.40772 162.772C4.4801 161.374 2.2844 157.195 3.36211 153.167L21.2496 86.3242C21.59 85.0523 22.239 83.8842 23.139 82.9233L76.5229 25.9303C77.4799 24.9085 78.6883 24.1558 80.0274 23.7473L154.666 0.979675ZM159.334 13.6972C157.813 13.2331 156.187 13.2331 154.666 13.6972L122.613 23.4743C119.234 24.5051 119.589 29.3997 123.081 29.9323L125.166 30.2503C125.198 30.2551 125.229 30.2409 125.246 30.2141C125.28 30.1608 125.359 30.1657 125.387 30.2227L125.397 30.2439C125.41 30.2719 125.436 30.2914 125.467 30.2961L155.794 34.921C156.593 35.0429 157.407 35.0429 158.206 34.921L188.533 30.296C188.564 30.2914 188.59 30.272 188.603 30.2442L188.614 30.2219C188.641 30.1654 188.72 30.1609 188.753 30.214C188.77 30.2408 188.802 30.2551 188.833 30.2503L190.93 29.9305C194.419 29.3983 194.774 24.5076 191.397 23.4777L159.334 13.6972ZM233.319 39.2847C231.516 37.3601 228.88 36.4474 226.274 36.845L208.062 39.6225C202.347 40.494 199.415 46.9527 202.52 51.8286L220.655 80.3032C224.392 86.1698 233.318 84.8028 235.127 78.0869L241.684 53.753C242.404 51.0795 241.691 48.2237 239.798 46.2029L233.319 39.2847ZM87.7264 36.845C85.1195 36.4474 82.4841 37.3601 80.6814 39.2847L74.2018 46.2029C72.309 48.2237 71.5958 51.0795 72.3161 53.753L78.8726 78.087C80.6821 84.8028 89.6085 86.1698 93.3448 80.3032L111.48 51.8286C114.585 46.9527 111.653 40.494 105.938 39.6225L87.7264 36.845ZM175.731 57.1947C178.499 51.3998 173.654 44.8699 167.306 45.838L158.206 47.2256C157.407 47.3475 156.593 47.3475 155.794 47.2256L146.694 45.8378C140.346 44.8695 135.502 51.3994 138.27 57.1944L149.781 81.2953C152.68 87.3645 161.32 87.3646 164.219 81.2953L175.731 57.1947ZM197.947 67.2937C194.572 61.9953 186.688 62.4748 183.98 68.1431L168.004 101.591C165.236 107.386 170.08 113.916 176.429 112.947L210.406 107.765C216.121 106.893 219.053 100.435 215.948 95.559L197.947 67.2937ZM130.02 68.1432C127.312 62.4749 119.428 61.9954 116.053 67.2938L98.0519 95.5591C94.9467 100.435 97.8789 106.893 103.593 107.765L137.571 112.948C143.92 113.916 148.764 107.386 145.996 101.591L130.02 68.1432ZM262.45 70.3856C258.164 65.8095 250.518 67.7191 248.887 73.7733L246.105 84.0967C244.368 90.5452 250.83 96.1581 256.972 93.5352L265.866 89.7372C270.972 87.5564 272.358 80.9636 268.562 76.9109L262.45 70.3856ZM65.113 73.7737C63.4818 67.7194 55.8362 65.8098 51.5498 70.386L45.4378 76.9113C41.6418 80.9639 43.0279 87.5564 48.1343 89.7374L57.0279 93.5357C63.1698 96.1589 69.6321 90.546 67.8946 84.0974L65.113 73.7737ZM285.072 104.692C283.814 99.9886 278.68 97.4909 274.203 99.4031L257.303 106.62C251.666 109.027 250.719 116.621 255.594 120.338L279.254 138.381C285.321 143.008 293.806 137.322 291.833 129.951L285.072 104.692ZM39.7973 99.4031C35.3195 97.4909 30.1864 99.9886 28.9275 104.692L22.167 129.951C20.1942 137.322 28.6786 143.008 34.7461 138.381L58.4059 120.338C63.2805 116.621 62.3344 109.027 56.6966 106.62L39.7973 99.4031ZM222.019 129.403C223.31 123.889 218.621 118.816 213.023 119.67L179.815 124.735C174.024 125.618 171.115 132.222 174.373 137.092L198.092 172.545C201.982 178.359 210.935 176.732 212.53 169.92L222.019 129.403ZM100.977 119.67C95.3789 118.816 90.6903 123.889 91.9814 129.403L101.47 169.921C103.065 176.732 112.018 178.36 115.908 172.545L139.628 137.092C142.885 132.222 139.976 125.618 134.185 124.735L100.977 119.67ZM302.41 176.632C307.62 174.767 313.105 178.629 313.105 184.164V188.889C313.105 192.268 310.982 195.283 307.801 196.421L211.32 230.95C210.455 231.26 209.543 231.418 208.625 231.418H105.375C104.457 231.418 103.545 231.26 102.68 230.95L6.1989 196.421C3.01751 195.283 0.894531 192.268 0.894531 188.889V184.164C0.894531 178.629 6.37954 174.767 11.5904 176.632L100.581 208.483C101.446 208.793 102.358 208.951 103.277 208.951H210.723C211.642 208.951 212.554 208.793 213.419 208.483L302.41 176.632Z"/>
  </mask>
  <path d="M154.666 0.979675C156.187 0.51557 157.813 0.515564 159.334 0.979658L233.973 23.7467C235.312 24.1551 236.52 24.9079 237.477 25.9297L290.86 82.9226C291.76 83.8835 292.409 85.0517 292.75 86.3235L310.637 153.167C311.715 157.194 309.519 161.374 305.592 162.772L299.851 164.816C297.302 165.723 294.468 165.281 292.317 163.64L246.293 128.542C241.68 125.025 234.975 127.432 233.652 133.079L220.52 189.152C219.9 191.801 217.977 193.952 215.414 194.865L211.314 196.324C210.453 196.63 209.546 196.787 208.632 196.787H203.949C201.278 196.787 198.784 195.455 197.299 193.236L163.649 142.94C160.481 138.205 153.519 138.205 150.351 142.94L116.701 193.236C115.216 195.455 112.722 196.787 110.051 196.787H105.368C104.454 196.787 103.547 196.63 102.686 196.324L98.5862 194.865C96.0235 193.952 94.0998 191.801 93.4796 189.152L80.3478 133.079C79.0252 127.432 72.3197 125.025 67.7074 128.542L21.6833 163.64C19.5323 165.281 16.6981 165.723 14.1497 164.816L8.40772 162.772C4.4801 161.374 2.2844 157.195 3.36211 153.167L21.2496 86.3242C21.59 85.0523 22.239 83.8842 23.139 82.9233L76.5229 25.9303C77.4799 24.9085 78.6883 24.1558 80.0274 23.7473L154.666 0.979675ZM159.334 13.6972C157.813 13.2331 156.187 13.2331 154.666 13.6972L122.613 23.4743C119.234 24.5051 119.589 29.3997 123.081 29.9323L125.166 30.2503C125.198 30.2551 125.229 30.2409 125.246 30.2141C125.28 30.1608 125.359 30.1657 125.387 30.2227L125.397 30.2439C125.41 30.2719 125.436 30.2914 125.467 30.2961L155.794 34.921C156.593 35.0429 157.407 35.0429 158.206 34.921L188.533 30.296C188.564 30.2914 188.59 30.272 188.603 30.2442L188.614 30.2219C188.641 30.1654 188.72 30.1609 188.753 30.214C188.77 30.2408 188.802 30.2551 188.833 30.2503L190.93 29.9305C194.419 29.3983 194.774 24.5076 191.397 23.4777L159.334 13.6972ZM233.319 39.2847C231.516 37.3601 228.88 36.4474 226.274 36.845L208.062 39.6225C202.347 40.494 199.415 46.9527 202.52 51.8286L220.655 80.3032C224.392 86.1698 233.318 84.8028 235.127 78.0869L241.684 53.753C242.404 51.0795 241.691 48.2237 239.798 46.2029L233.319 39.2847ZM87.7264 36.845C85.1195 36.4474 82.4841 37.3601 80.6814 39.2847L74.2018 46.2029C72.309 48.2237 71.5958 51.0795 72.3161 53.753L78.8726 78.087C80.6821 84.8028 89.6085 86.1698 93.3448 80.3032L111.48 51.8286C114.585 46.9527 111.653 40.494 105.938 39.6225L87.7264 36.845ZM175.731 57.1947C178.499 51.3998 173.654 44.8699 167.306 45.838L158.206 47.2256C157.407 47.3475 156.593 47.3475 155.794 47.2256L146.694 45.8378C140.346 44.8695 135.502 51.3994 138.27 57.1944L149.781 81.2953C152.68 87.3645 161.32 87.3646 164.219 81.2953L175.731 57.1947ZM197.947 67.2937C194.572 61.9953 186.688 62.4748 183.98 68.1431L168.004 101.591C165.236 107.386 170.08 113.916 176.429 112.947L210.406 107.765C216.121 106.893 219.053 100.435 215.948 95.559L197.947 67.2937ZM130.02 68.1432C127.312 62.4749 119.428 61.9954 116.053 67.2938L98.0519 95.5591C94.9467 100.435 97.8789 106.893 103.593 107.765L137.571 112.948C143.92 113.916 148.764 107.386 145.996 101.591L130.02 68.1432ZM262.45 70.3856C258.164 65.8095 250.518 67.7191 248.887 73.7733L246.105 84.0967C244.368 90.5452 250.83 96.1581 256.972 93.5352L265.866 89.7372C270.972 87.5564 272.358 80.9636 268.562 76.9109L262.45 70.3856ZM65.113 73.7737C63.4818 67.7194 55.8362 65.8098 51.5498 70.386L45.4378 76.9113C41.6418 80.9639 43.0279 87.5564 48.1343 89.7374L57.0279 93.5357C63.1698 96.1589 69.6321 90.546 67.8946 84.0974L65.113 73.7737ZM285.072 104.692C283.814 99.9886 278.68 97.4909 274.203 99.4031L257.303 106.62C251.666 109.027 250.719 116.621 255.594 120.338L279.254 138.381C285.321 143.008 293.806 137.322 291.833 129.951L285.072 104.692ZM39.7973 99.4031C35.3195 97.4909 30.1864 99.9886 28.9275 104.692L22.167 129.951C20.1942 137.322 28.6786 143.008 34.7461 138.381L58.4059 120.338C63.2805 116.621 62.3344 109.027 56.6966 106.62L39.7973 99.4031ZM222.019 129.403C223.31 123.889 218.621 118.816 213.023 119.67L179.815 124.735C174.024 125.618 171.115 132.222 174.373 137.092L198.092 172.545C201.982 178.359 210.935 176.732 212.53 169.92L222.019 129.403ZM100.977 119.67C95.3789 118.816 90.6903 123.889 91.9814 129.403L101.47 169.921C103.065 176.732 112.018 178.36 115.908 172.545L139.628 137.092C142.885 132.222 139.976 125.618 134.185 124.735L100.977 119.67ZM302.41 176.632C307.62 174.767 313.105 178.629 313.105 184.164V188.889C313.105 192.268 310.982 195.283 307.801 196.421L211.32 230.95C210.455 231.26 209.543 231.418 208.625 231.418H105.375C104.457 231.418 103.545 231.26 102.68 230.95L6.1989 196.421C3.01751 195.283 0.894531 192.268 0.894531 188.889V184.164C0.894531 178.629 6.37954 174.767 11.5904 176.632L100.581 208.483C101.446 208.793 102.358 208.951 103.277 208.951H210.723C211.642 208.951 212.554 208.793 213.419 208.483L302.41 176.632Z" fill="black" stroke="black" stroke-width="2" mask="url(#path-1-inside-1_166_5)"/>
  </svg>
